<mxfile host="app.diagrams.net" modified="2023-08-06T06:24:40.051Z" agent="Mozilla/5.0 (Windows NT 10.0; Win64; x64) AppleWebKit/537.36 (KHTML, like Gecko) Chrome/115.0.0.0 Safari/537.36" version="21.6.6" etag="4JI1hF2laD7V-GsE2wgs" type="github">
  <diagram name="페이지-1" id="qk0ltfsZV8oAMIxx38Yx">
    <mxGraphModel>
      <root>
        <mxCell id="0" />
        <mxCell id="1" parent="0" />
      </root>
    </mxGraphModel>
  </diagram>
</mxfile>
